# xmcd
#
# Track frame offsets:
#	150
#	21730
#	38308
#	60955
#	75850
#	94650
#	109110
#	128235
#	146103
#	168680
#	187060
#	207125
#	235055
#	255405
#	274835
#
# Disc length: 3963 seconds
#
# Revision: 0
# Processed by: cddbd v1.5.2PL0 Copyright (c) Steve Scherf et al.
# Submitted via: dBpowerAMP V4.0
#
DISCID=c70f790f
DTITLE=Paul Rodgers - Cut Loose
DYEAR=1983
DGENRE=Blues
TTITLE0=Fragile
TTITLE1=Cut Loose
TTITLE2=Live In Peace
TTITLE3=Sweet Sensation
TTITLE4=Rising Sun
TTITLE5=Boogie Mama
TTITLE6=Morning After The Night Before
TTITLE7=Northwinds
TTITLE8=Superstar Woman
TTITLE9=Talking Guitar Blues
TTITLE10=Little Bit Of Love (bonus, live)
TTITLE11=Be My Friend (bonus, live)
TTITLE12=Feel Like Makin' Love (bonus, live)
TTITLE13=Louisiana Blues (bonus, live)
TTITLE14=Muddy Water Blues (bonus, live)
EXTD=
EXTT0=
EXTT1=
EXTT2=
EXTT3=
EXTT4=
EXTT5=
EXTT6=
EXTT7=
EXTT8=
EXTT9=
EXTT10=
EXTT11=
EXTT12=
EXTT13=
EXTT14=
PLAYORDER=
